<svg width="448" height="267" viewBox="0 0 448 267" fill="none" xmlns="http://www.w3.org/2000/svg">
<path d="M312.704 122.155C309.202 101.195 290.95 85.2222 268.962 85.2222H179.042C157.062 85.2222 138.815 101.182 135.301 122.13C134.895 124.525 134.686 126.989 134.686 129.5V207.71C134.686 210.221 134.895 212.681 135.301 215.076C138.098 231.765 150.251 245.291 166.197 250.095C170.262 251.323 174.575 251.984 179.042 251.984H268.962C273.429 251.984 277.742 251.323 281.808 250.095C297.757 245.287 309.915 231.753 312.704 215.051C313.105 212.664 313.314 210.213 313.314 207.71V129.5C313.314 126.998 313.105 124.542 312.704 122.155ZM276.572 250.095C274.1 250.535 271.559 250.765 268.962 250.765H179.042C176.445 250.765 173.905 250.535 171.432 250.095C151.242 246.51 135.911 228.896 135.911 207.71V181.75C135.911 108.395 195.478 86.4456 268.962 86.4456C292.782 86.4456 312.093 105.722 312.093 129.5V207.71C254.268 215.434 296.762 246.51 276.572 250.095Z" fill="#3F3D56"/>
<path d="M241.895 144.241L245.355 166.687L296.093 159.781L291.192 133.554L241.895 144.241Z" fill="#009EDD"/>
<path d="M281.716 18.2834H260.738V39.9596H281.716V18.2834Z" fill="#2F2E41"/>
<path d="M262.652 41.2161L267.841 25.676H277.956L278.487 41.2161H262.652Z" fill="#FFB6B6"/>
<path opacity="0.1" d="M262.652 41.2161L267.841 25.676H277.956L278.487 41.2161H262.652Z" fill="black"/>
<path d="M268.129 179.637L267.553 239.495L266.976 244.1V250.71L275.625 251.582L276.201 238.344C276.201 238.344 285.426 212.444 283.12 192.3C280.814 172.155 281.967 177.911 281.967 177.911L268.129 179.637Z" fill="#FFB6B6"/>
<path d="M273.62 184.338L252.343 240.304L251.202 244.803L248.794 250.96L240.42 248.632L244.707 236.091C244.707 236.091 245.552 208.616 255.041 190.689C264.531 172.762 261.359 177.705 261.359 177.705L273.62 184.338Z" fill="#FFB6B6"/>
<path d="M262.652 39.4893L247.085 46.396L257.024 97.6275L255.454 171.158L245.076 193.029C245.076 193.029 243.337 205.537 261.211 197.48C279.084 189.422 299.264 187.12 299.264 187.12L294.363 153.45L290.039 65.1016L290.616 45.5326L277.931 37.4749L262.652 39.4893V39.4893Z" fill="#2F2E41"/>
<path d="M253.982 193.829L236.706 164.961L256.448 97.6277L247.085 46.3962L263.511 39.3762C263.511 39.3762 272.015 47.6426 272.015 54.4609C272.015 61.2793 253.982 193.829 253.982 193.829Z" fill="#E6E6E6"/>
<path d="M291.459 188.073L275.778 53.6072C275.58 51.9093 275.87 50.1902 276.615 48.651L281.102 39.3762L298.688 44.3817L291.619 99.3544L310.507 153.45L291.459 188.073H291.459Z" fill="#E6E6E6"/>
<path d="M277.355 250.431C277.355 250.431 266.4 244.1 265.247 247.553C264.093 251.007 263.517 253.884 263.517 253.884C263.517 253.884 260.634 264.82 269.283 264.82C277.931 264.82 277.355 259.846 277.355 259.846V250.431Z" fill="#2F2E41"/>
<path d="M239.228 246.931C239.228 246.931 251.739 245.012 251.555 248.648C251.371 252.283 250.859 255.173 250.859 255.173C250.859 255.173 249.559 266.406 241.503 263.266C233.447 260.125 235.797 255.701 235.797 255.701L239.228 246.931Z" fill="#2F2E41"/>
<path d="M273.573 34.1339C281.489 34.1339 287.906 27.7279 287.906 19.8256C287.906 11.9234 281.489 5.51733 273.573 5.51733C265.657 5.51733 259.239 11.9234 259.239 19.8256C259.239 27.7279 265.657 34.1339 273.573 34.1339Z" fill="#FFB6B6"/>
<path d="M285.025 7.07478C284.357 3.54699 280.73 1.16085 277.146 0.86164C273.562 0.562425 270.051 1.91333 266.824 3.49723C264.636 4.57092 262.482 5.78111 260.71 7.45236C258.937 9.1236 257.561 11.3068 257.243 13.7197C257.131 14.5734 257.145 15.4653 256.795 16.2522C256.358 17.2353 255.419 17.9029 254.853 18.8178C253.837 20.4587 254.303 22.8459 255.863 23.9849C253.903 24.8189 251.888 25.6889 250.394 27.2055C248.899 28.722 248.036 31.0635 248.856 33.027C249.147 33.7217 249.626 34.3298 249.874 35.0406C250.345 36.3902 249.897 37.9236 249.061 39.0843C248.226 40.2451 247.047 41.1059 245.889 41.9462C248.866 42.5285 251.903 42.9822 254.924 42.7106C257.945 42.4389 260.976 41.3821 263.164 39.285C265.351 37.1878 266.555 33.9528 265.77 31.0284C265.169 28.7882 263.487 26.8251 263.488 24.5059C263.489 22.7231 264.493 21.1149 265.463 19.6178L271.816 9.80922C272.197 9.2211 272.599 8.6125 273.201 8.25277C274.225 7.6408 275.553 7.90992 276.632 8.41786C277.712 8.9258 278.698 9.65454 279.849 9.96947C282.199 10.6122 284.924 9.13613 285.665 6.81967" fill="#2F2E41"/>
<path d="M276.557 36.1736C275.363 37.3282 273.642 37.7001 272.047 38.168C270.451 38.6359 268.754 39.3717 268.036 40.8687C267.332 42.3367 267.844 44.2 269.009 45.338C270.175 46.4759 271.868 46.9553 273.498 46.9327C275.128 46.9101 276.717 46.4331 278.25 45.8794C282.442 44.3652 286.412 42.241 289.997 39.5949C287.675 38.9536 286.156 36.2474 286.821 33.936C287.361 32.0558 289.014 30.7444 290.139 29.1427C292.076 26.3849 292.399 22.7497 291.758 19.443C291.116 16.1363 289.606 13.071 288.112 10.0513C287.639 9.09669 287.156 8.12595 286.419 7.35625C285.682 6.58655 284.638 6.03512 283.578 6.1454C281.817 6.3284 280.693 8.25763 280.681 10.0245C280.669 11.7913 281.446 13.4519 282.034 15.1181C282.641 16.8347 283.063 18.6544 282.9 20.4675C282.764 21.9869 282.21 23.4669 281.316 24.7037C280.625 25.6589 279.745 26.4604 278.994 27.3691C278.413 28.0716 277.898 28.8673 277.745 29.7653C277.468 31.3993 278.428 33.0528 278.165 34.6893C277.886 36.4192 276.063 37.7436 274.328 37.4754" fill="#2F2E41"/>
<path d="M232.72 236.018C259.787 236.018 281.729 214.115 281.729 187.096C281.729 160.077 259.787 138.173 232.72 138.173C205.654 138.173 183.712 160.077 183.712 187.096C183.712 214.115 205.654 236.018 232.72 236.018Z" fill="#009EDD"/>
<path d="M246.404 137.338C245.81 141.578 243.138 144.709 240.435 144.331C237.732 143.954 236.023 140.211 236.617 135.97C236.831 134.273 237.45 132.651 238.42 131.241L241.162 113.309L249.565 114.773L245.969 132.295C246.516 133.917 246.665 135.647 246.404 137.338Z" fill="#FFB6B6"/>
<path d="M253.715 45.5328C253.715 45.5328 245.067 42.6551 243.913 53.0151C242.76 63.3751 241.607 76.0373 241.607 76.0373C241.607 76.0373 236.418 88.124 238.724 94.4552C241.031 100.786 245.067 96.3722 241.031 101.745C236.995 107.117 237.557 124.794 237.557 124.794L250.544 124.142C250.544 124.142 257.751 76.6129 257.751 75.4618C257.751 74.3107 253.715 45.5328 253.715 45.5328V45.5328Z" fill="#E6E6E6"/>
<path d="M309.931 135.414C310.091 139.692 308.01 143.242 305.283 143.344C302.556 143.445 300.216 140.06 300.055 135.781C299.968 134.072 300.291 132.367 300.999 130.809L300.547 112.675L309.077 112.645L308.617 130.525C309.439 132.027 309.89 133.703 309.931 135.414V135.414Z" fill="#FFB6B6"/>
<path d="M296.616 45.3384C296.616 45.3384 305.315 42.6153 306.283 52.9942C307.25 63.3732 308.177 82.3851 308.177 82.3851C308.177 82.3851 313.149 94.5624 310.729 100.851C308.31 107.14 304.354 102.655 308.293 108.099C312.232 113.542 310.818 128.894 310.818 128.894L297.845 128.01C297.845 128.01 292.025 82.6726 292.045 81.5217C292.066 80.3708 296.616 45.3384 296.616 45.3384V45.3384Z" fill="#E6E6E6"/>
<path d="M267.559 183.152H260.328C259.203 176.522 255.731 170.519 250.547 166.237C238.616 156.382 220.955 158.065 211.101 169.996C211.067 170.034 211.035 170.074 211.004 170.114C210.217 171.134 210.406 172.6 211.426 173.388C212.447 174.175 213.913 173.986 214.7 172.965C218.981 167.779 225.461 164.479 232.706 164.479C243.798 164.48 253.358 172.284 255.58 183.152H249.203C248.93 183.152 248.666 183.247 248.457 183.422C247.962 183.834 247.895 184.57 248.307 185.066L257.485 196.083C257.53 196.137 257.58 196.186 257.634 196.231C258.129 196.644 258.865 196.578 259.277 196.083L268.455 185.066C268.63 184.856 268.725 184.592 268.726 184.319C268.726 183.674 268.203 183.152 267.559 183.152V183.152Z" fill="white"/>
<path d="M253.985 202.252C252.964 201.464 251.498 201.653 250.711 202.674C247.315 206.785 242.615 209.611 237.391 210.68C224.757 213.267 212.418 205.122 209.831 192.488H216.208C216.853 192.488 217.375 191.965 217.375 191.32C217.374 191.048 217.279 190.784 217.104 190.574L207.926 179.557C207.514 179.062 206.778 178.995 206.283 179.408C206.229 179.453 206.179 179.503 206.134 179.557L196.956 190.574C196.544 191.069 196.611 191.805 197.106 192.218C197.316 192.392 197.58 192.488 197.852 192.488H205.083C206.209 199.117 209.68 205.121 214.864 209.403C226.795 219.257 244.456 217.574 254.31 205.643C254.344 205.605 254.376 205.566 254.407 205.526C255.195 204.505 255.006 203.039 253.985 202.252H253.985V202.252Z" fill="white"/>
<path d="M447.5 264.82H0.5V266.18H447.5V264.82Z" fill="#3F3D56"/>
</svg>
